<?xml version="1.0" encoding="iso-8859-1"?>
<!-- Generator: Adobe Illustrator 18.0.0, SVG Export Plug-In . SVG Version: 6.00 Build 0)  -->
<!DOCTYPE svg PUBLIC "-//W3C//DTD SVG 1.1//EN" "http://www.w3.org/Graphics/SVG/1.1/DTD/svg11.dtd">
<svg version="1.1" id="Capa_1" xmlns="http://www.w3.org/2000/svg" xmlns:xlink="http://www.w3.org/1999/xlink" x="0px" y="0px"
	 viewBox="0 0 269.749 269.749" style="enable-background:new 0 0 269.749 269.749;" xml:space="preserve">
<g>
	<path d="M57.341,171.042c4.971,0,9-4.029,9-9v-54.335c0-4.971-4.029-9-9-9s-9,4.029-9,9v54.335
		C48.341,167.013,52.37,171.042,57.341,171.042z"/>
	<path d="M99.237,171.042c4.971,0,9-4.029,9-9v-54.335c0-4.971-4.029-9-9-9s-9,4.029-9,9v54.335
		C90.237,167.013,94.266,171.042,99.237,171.042z"/>
	<path d="M141.132,171.042c4.971,0,9-4.029,9-9v-54.335c0-4.971-4.029-9-9-9s-9,4.029-9,9v54.335
		C132.132,167.013,136.162,171.042,141.132,171.042z"/>
	<path d="M183.028,171.042c4.971,0,9-4.029,9-9v-54.335c0-4.971-4.029-9-9-9s-9,4.029-9,9v54.335
		C174.028,167.013,178.058,171.042,183.028,171.042z"/>
	<path d="M260.749,98.707h-19.433c-0.32,0-0.635,0.018-0.947,0.05v-24.37c0-4.971-4.029-9-9-9H9c-4.971,0-9,4.029-9,9v120.974
		c0,4.971,4.029,9,9,9h222.369c4.971,0,9-4.029,9-9v-24.37c0.311,0.033,0.627,0.05,0.947,0.05h19.433c4.971,0,9-4.029,9-9v-54.335
		C269.749,102.736,265.72,98.707,260.749,98.707z M222.369,186.361H18V83.388h204.369V186.361z M251.749,153.042h-10.433
		c-0.32,0-0.635,0.018-0.947,0.05v-36.436c0.311,0.033,0.627,0.05,0.947,0.05h10.433V153.042z"/>
</g>
<g>
</g>
<g>
</g>
<g>
</g>
<g>
</g>
<g>
</g>
<g>
</g>
<g>
</g>
<g>
</g>
<g>
</g>
<g>
</g>
<g>
</g>
<g>
</g>
<g>
</g>
<g>
</g>
<g>
</g>
</svg>
