<?xml version="1.0" encoding="iso-8859-1"?>
<!-- Generator: Adobe Illustrator 19.0.0, SVG Export Plug-In . SVG Version: 6.00 Build 0)  -->
<svg version="1.1" id="Layer_1" xmlns="http://www.w3.org/2000/svg" xmlns:xlink="http://www.w3.org/1999/xlink" x="0px" y="0px"
	 viewBox="0 0 512 512" style="enable-background:new 0 0 512 512;" xml:space="preserve">
<path style="fill:#FF3F62;" d="M437.02,74.98C388.668,26.629,324.38,0,256,0S123.333,26.629,74.981,74.98
	c-99.814,99.814-99.815,262.223-0.002,362.038C123.331,485.371,187.62,512,256,512s132.668-26.629,181.02-74.982
	C536.833,337.203,536.833,174.794,437.02,74.98z"/>
<path id="SVGCleanerId_0" style="fill:#830018;" d="M371.193,338.28L288.912,256l82.28-82.281c9.089-9.087,9.089-23.824,0-32.912
	c-9.087-9.089-23.824-9.087-32.912,0L256,223.088l-82.282-82.282c-9.087-9.089-23.824-9.089-32.912,0
	c-9.089,9.087-9.089,23.824,0,32.912L223.087,256l-82.282,82.282c-9.089,9.087-9.089,23.824,0,32.912
	c4.544,4.546,10.501,6.817,16.455,6.817c5.955,0,11.913-2.273,16.455-6.817L256,288.912l82.281,82.28
	c4.544,4.544,10.501,6.817,16.455,6.817s11.913-2.273,16.455-6.817C380.282,362.105,380.282,347.369,371.193,338.28z"/>
<path style="fill:#FF3F62;" d="M256,0v223.088l82.28-82.282c9.087-9.087,23.824-9.089,32.912,0c9.089,9.087,9.089,23.824,0,32.912
	L288.912,256l82.281,82.28c9.089,9.087,9.089,23.824,0,32.912c-4.544,4.544-10.501,6.817-16.457,6.817
	c-5.956,0-11.913-2.273-16.455-6.817L256,288.912V512c68.38,0,132.668-26.629,181.02-74.982c99.814-99.815,99.814-262.225,0-362.038
	C388.668,26.629,324.38,0,256,0z"/>
<path id="SVGCleanerId_1" style="fill:#FF0C38;" d="M173.718,371.194c-4.544,4.544-10.501,6.817-16.455,6.817
	c-5.956,0-11.913-2.271-16.457-6.817c-9.089-9.087-9.089-23.824,0-32.912L223.087,256l-82.282-82.281
	c-9.089-9.087-9.089-23.824,0-32.912c9.087-9.089,23.825-9.089,32.912,0L256,223.088V0C187.62,0,123.333,26.629,74.981,74.98
	c-99.814,99.814-99.815,262.223-0.002,362.038C123.331,485.371,187.62,512,256,512V288.912L173.718,371.194z"/>
<g>
	<path id="SVGCleanerId_0_1_" style="fill:#830018;" d="M371.193,338.28L288.912,256l82.28-82.281
		c9.089-9.087,9.089-23.824,0-32.912c-9.087-9.089-23.824-9.087-32.912,0L256,223.088l-82.282-82.282
		c-9.087-9.089-23.824-9.089-32.912,0c-9.089,9.087-9.089,23.824,0,32.912L223.087,256l-82.282,82.282
		c-9.089,9.087-9.089,23.824,0,32.912c4.544,4.546,10.501,6.817,16.455,6.817c5.955,0,11.913-2.273,16.455-6.817L256,288.912
		l82.281,82.28c4.544,4.544,10.501,6.817,16.455,6.817s11.913-2.273,16.455-6.817C380.282,362.105,380.282,347.369,371.193,338.28z"
		/>
</g>
<g>
	<path id="SVGCleanerId_1_1_" style="fill:#FF0C38;" d="M173.718,371.194c-4.544,4.544-10.501,6.817-16.455,6.817
		c-5.956,0-11.913-2.271-16.457-6.817c-9.089-9.087-9.089-23.824,0-32.912L223.087,256l-82.282-82.281
		c-9.089-9.087-9.089-23.824,0-32.912c9.087-9.089,23.825-9.089,32.912,0L256,223.088V0C187.62,0,123.333,26.629,74.981,74.98
		c-99.814,99.814-99.815,262.223-0.002,362.038C123.331,485.371,187.62,512,256,512V288.912L173.718,371.194z"/>
</g>
<g>
</g>
<g>
</g>
<g>
</g>
<g>
</g>
<g>
</g>
<g>
</g>
<g>
</g>
<g>
</g>
<g>
</g>
<g>
</g>
<g>
</g>
<g>
</g>
<g>
</g>
<g>
</g>
<g>
</g>
</svg>
