<?xml version="1.0" encoding="iso-8859-1"?>
<!-- Generator: Adobe Illustrator 19.0.0, SVG Export Plug-In . SVG Version: 6.00 Build 0)  -->
<svg version="1.1" id="Layer_1" xmlns="http://www.w3.org/2000/svg" xmlns:xlink="http://www.w3.org/1999/xlink" x="0px" y="0px"
	 viewBox="0 0 480 480" style="enable-background:new 0 0 480 480;" xml:space="preserve">
<path style="fill:#FFB600;" d="M448,407.2c0,18.4-15.2,32.8-32.8,32.8H64.8C47.2,440,32,424.8,32,407.2V64.8
	C32,47.2,47.2,32,64.8,32h349.6c18.4,0,32.8,15.2,32.8,32.8v342.4H448z"/>
<path style="fill:#EDA006;" d="M32,64.8C32,47.2,47.2,32,64.8,32h349.6c18.4,0,32.8,15.2,32.8,32.8V408c0,18.4-15.2,32-32.8,32"/>
<rect x="104" y="104" style="fill:#FF8500;" width="272" height="272"/>
<g>
	<polyline style="fill:#ED6E06;" points="104,104 376,104 376,376 	"/>
	<path style="fill:#ED6E06;" d="M208,60.8c0,4-4,7.2-8,7.2l0,0c-4,0-8-3.2-8-7.2V7.2c0-4,4-7.2,8-7.2l0,0c4,0,8,3.2,8,7.2V60.8z"/>
	<path style="fill:#ED6E06;" d="M248,60.8c0,4-4,7.2-8,7.2l0,0c-4,0-8-3.2-8-7.2V7.2c0-4,4-7.2,8-7.2l0,0c4,0,8,3.2,8,7.2V60.8z"/>
	<path style="fill:#ED6E06;" d="M288,60.8c0,4-4,7.2-8,7.2l0,0c-4,0-8-3.2-8-7.2V7.2c0-4,4-7.2,8-7.2l0,0c4,0,8,3.2,8,7.2V60.8z"/>
	<path style="fill:#ED6E06;" d="M248,472.8c0,4-4,7.2-8,7.2l0,0c-4,0-8-3.2-8-7.2v-53.6c0-4,4-7.2,8-7.2l0,0c4,0,8,3.2,8,7.2V472.8z
		"/>
	<path style="fill:#ED6E06;" d="M208,472.8c0,4-4,7.2-8,7.2l0,0c-4,0-8-3.2-8-7.2v-53.6c0-4,4-7.2,8-7.2l0,0c4,0,8,3.2,8,7.2V472.8z
		"/>
	<path style="fill:#ED6E06;" d="M288,472.8c0,4-4,7.2-8,7.2l0,0c-4,0-8-3.2-8-7.2v-53.6c0-4,4-7.2,8-7.2l0,0c4,0,8,3.2,8,7.2V472.8z
		"/>
	<path style="fill:#ED6E06;" d="M419.2,208c-4,0-7.2-4-7.2-8l0,0c0-4,3.2-8,7.2-8h53.6c4,0,7.2,4,7.2,8l0,0c0,4-3.2,8-7.2,8H419.2z"
		/>
	<path style="fill:#ED6E06;" d="M419.2,248c-4,0-7.2-4-7.2-8l0,0c0-4,3.2-8,7.2-8h53.6c4,0,7.2,4,7.2,8l0,0c0,4-3.2,8-7.2,8H419.2z"
		/>
	<path style="fill:#ED6E06;" d="M419.2,288c-4,0-7.2-4-7.2-8l0,0c0-4,3.2-8,7.2-8h53.6c4,0,7.2,4,7.2,8l0,0c0,4-3.2,8-7.2,8H419.2z"
		/>
	<path style="fill:#ED6E06;" d="M7.2,208c-4,0-7.2-4-7.2-8l0,0c0-4,3.2-8,7.2-8h53.6c4,0,7.2,4,7.2,8l0,0c0,4-3.2,8-7.2,8H7.2z"/>
	<path style="fill:#ED6E06;" d="M7.2,248c-4,0-7.2-4-7.2-8l0,0c0-4,3.2-8,7.2-8h53.6c4,0,7.2,4,7.2,8l0,0c0,4-3.2,8-7.2,8H7.2z"/>
	<path style="fill:#ED6E06;" d="M7.2,288c-4,0-7.2-4-7.2-8l0,0c0-4,3.2-8,7.2-8h53.6c4,0,7.2,4,7.2,8l0,0c0,4-3.2,8-7.2,8H7.2z"/>
</g>
<g>
	<circle style="fill:#EDEA83;" cx="79.2" cy="76.8" r="15.2"/>
	<circle style="fill:#EDEA83;" cx="400.8" cy="76.8" r="15.2"/>
	<circle style="fill:#EDEA83;" cx="79.2" cy="403.2" r="15.2"/>
	<circle style="fill:#EDEA83;" cx="400.8" cy="403.2" r="15.2"/>
</g>
<g>
	<g>
		<polyline style="fill:#EFB025;stroke:#EDEA82;stroke-linecap:round;stroke-miterlimit:10;" points="140,200 140,268 192,268 		"/>
		<polyline style="fill:#EFB025;stroke:#EDEA82;stroke-linecap:round;stroke-miterlimit:10;" points="196,248 196,324 212,324 
			212,356 280,356 		"/>
		<line style="fill:none;stroke:#EDEA82;stroke-linecap:round;stroke-miterlimit:10;" x1="176" y1="236" x2="216" y2="236"/>
		<polyline style="fill:#EFB025;stroke:#EDEA82;stroke-linecap:round;stroke-miterlimit:10;" points="254.4,300 309.6,356 268,356 
			268,314.4 		"/>
		<path style="fill:#EFB025;stroke:#EDEA82;stroke-linecap:round;stroke-miterlimit:10;" d="M165.6,352.8c-13.6,0-24-11.2-24-24
			c0-13.6,11.2-24,24-24"/>
		<polyline style="fill:#EFB025;stroke:#EDEA82;stroke-linecap:round;stroke-miterlimit:10;" points="120,164 140,164 140,184 		"/>
	</g>
	<g>
		<polyline style="fill:#F48619;stroke:#EDEA82;stroke-linecap:round;stroke-miterlimit:10;" points="340,280 340,212 288,212 		"/>
		<polyline style="fill:#F48619;stroke:#EDEA82;stroke-linecap:round;stroke-miterlimit:10;" points="284,232 284,156 268,156 
			268,124 200,124 		"/>
	</g>
	<line style="fill:none;stroke:#EDEA82;stroke-linecap:round;stroke-miterlimit:10;" x1="304" y1="244" x2="264" y2="244"/>
	<g>
		<polyline style="fill:#F48619;stroke:#EDEA82;stroke-linecap:round;stroke-miterlimit:10;" points="225.6,181.6 170.4,124 
			212,124 212,168 		"/>
		<path style="fill:#F48619;stroke:#EDEA82;stroke-linecap:round;stroke-miterlimit:10;" d="M314.4,127.2c13.6,0,24,11.2,24,24
			c0,13.6-11.2,24-24,24"/>
		<polyline style="fill:#F48619;stroke:#EDEA82;stroke-linecap:round;stroke-miterlimit:10;" points="360,316 340,316 340,296 		"/>
	</g>
</g>
<g>
</g>
<g>
</g>
<g>
</g>
<g>
</g>
<g>
</g>
<g>
</g>
<g>
</g>
<g>
</g>
<g>
</g>
<g>
</g>
<g>
</g>
<g>
</g>
<g>
</g>
<g>
</g>
<g>
</g>
</svg>
