<?xml version="1.0" encoding="iso-8859-1"?>
<!-- Generator: Adobe Illustrator 19.0.0, SVG Export Plug-In . SVG Version: 6.00 Build 0)  -->
<svg version="1.1" id="Layer_1" xmlns="http://www.w3.org/2000/svg" xmlns:xlink="http://www.w3.org/1999/xlink" x="0px" y="0px"
	 viewBox="0 0 512 512" style="enable-background:new 0 0 512 512;" xml:space="preserve">
<path style="fill:#AFB9D2;" d="M379.586,247.172H264.828v-44.138h-17.655v44.138H132.414c-14.603,0-26.483,11.88-26.483,26.483
	v61.793h17.655v-61.793c0-4.871,3.957-8.828,8.828-8.828h247.172c4.871,0,8.828,3.957,8.828,8.828v61.793h17.655v-61.793
	C406.069,259.052,394.189,247.172,379.586,247.172z"/>
<path style="fill:#FFF082;" d="M247.172,52.966l-12.414-18.621c-3.275-4.911-8.787-7.862-14.69-7.862h-61.172
	c-9.751,0-17.655,7.904-17.655,17.655v150.069c0,9.751,7.904,17.655,17.655,17.655h194.207c9.751,0,17.655-7.904,17.655-17.655
	V70.621c0-9.751-7.904-17.655-17.655-17.655H247.172z"/>
<g>
	<path style="fill:#FFFFFF;" d="M264.828,99.31h-17.655c-6.094,0-11.034-4.94-11.034-11.034c0-6.094,4.94-11.034,11.034-11.034
		h17.655c6.094,0,11.034,4.94,11.034,11.034C275.862,94.37,270.922,99.31,264.828,99.31z"/>
	<path style="fill:#FFFFFF;" d="M211.862,99.31h-35.31c-6.094,0-11.034-4.94-11.034-11.034c0-6.094,4.94-11.034,11.034-11.034h35.31
		c6.094,0,11.034,4.94,11.034,11.034C222.897,94.37,217.956,99.31,211.862,99.31z"/>
</g>
<path style="fill:#FFDC64;" d="M353.103,185.379H158.897c-9.75,0-17.655-7.905-17.655-17.655v26.483
	c0,9.75,7.905,17.655,17.655,17.655h194.207c9.75,0,17.655-7.905,17.655-17.655v-26.483
	C370.759,177.474,362.854,185.379,353.103,185.379z"/>
<path style="fill:#FFF082;" d="M105.931,326.621L93.517,308c-3.275-4.911-8.787-7.862-14.69-7.862H17.655
	C7.904,300.138,0,308.042,0,317.793v150.069c0,9.751,7.904,17.655,17.655,17.655h194.207c9.751,0,17.655-7.904,17.655-17.655
	V344.276c0-9.751-7.904-17.655-17.655-17.655H105.931z"/>
<g>
	<path style="fill:#FFFFFF;" d="M123.586,372.966h-17.655c-6.094,0-11.034-4.94-11.034-11.034s4.94-11.034,11.034-11.034h17.655
		c6.094,0,11.034,4.94,11.034,11.034S129.681,372.966,123.586,372.966z"/>
	<path style="fill:#FFFFFF;" d="M70.621,372.966H35.31c-6.094,0-11.034-4.94-11.034-11.034s4.94-11.034,11.034-11.034h35.31
		c6.094,0,11.034,4.94,11.034,11.034S76.715,372.966,70.621,372.966z"/>
</g>
<path style="fill:#FFDC64;" d="M211.862,459.034H17.655C7.905,459.034,0,451.129,0,441.379v26.483
	c0,9.75,7.905,17.655,17.655,17.655h194.207c9.75,0,17.655-7.905,17.655-17.655v-26.483
	C229.517,451.129,221.612,459.034,211.862,459.034z"/>
<path style="fill:#FFF082;" d="M388.414,326.621L376,308c-3.274-4.911-8.787-7.862-14.69-7.862h-61.172
	c-9.751,0-17.655,7.904-17.655,17.655v150.069c0,9.751,7.904,17.655,17.655,17.655h194.207c9.751,0,17.655-7.904,17.655-17.655
	V344.276c0-9.751-7.904-17.655-17.655-17.655H388.414z"/>
<g>
	<path style="fill:#FFFFFF;" d="M406.069,372.966h-17.655c-6.094,0-11.034-4.94-11.034-11.034s4.94-11.034,11.034-11.034h17.655
		c6.094,0,11.034,4.94,11.034,11.034S412.163,372.966,406.069,372.966z"/>
	<path style="fill:#FFFFFF;" d="M353.103,372.966h-35.31c-6.094,0-11.034-4.94-11.034-11.034s4.94-11.034,11.034-11.034h35.31
		c6.094,0,11.034,4.94,11.034,11.034S359.198,372.966,353.103,372.966z"/>
</g>
<path style="fill:#FFDC64;" d="M494.345,459.034H300.138c-9.75,0-17.655-7.905-17.655-17.655v26.483
	c0,9.75,7.905,17.655,17.655,17.655h194.207c9.75,0,17.655-7.905,17.655-17.655v-26.483
	C512,451.129,504.095,459.034,494.345,459.034z"/>
<g>
</g>
<g>
</g>
<g>
</g>
<g>
</g>
<g>
</g>
<g>
</g>
<g>
</g>
<g>
</g>
<g>
</g>
<g>
</g>
<g>
</g>
<g>
</g>
<g>
</g>
<g>
</g>
<g>
</g>
</svg>
