<?xml version="1.0" encoding="iso-8859-1"?>
<!-- Generator: Adobe Illustrator 19.0.0, SVG Export Plug-In . SVG Version: 6.00 Build 0)  -->
<svg version="1.1" id="Layer_1" xmlns="http://www.w3.org/2000/svg" xmlns:xlink="http://www.w3.org/1999/xlink" x="0px" y="0px"
	 viewBox="0 0 503.467 503.467" style="enable-background:new 0 0 503.467 503.467;" xml:space="preserve">
<g transform="translate(3 1)">
	<path style="fill:#7EE1E6;" d="M479.133,276.333v187.733c0,17.067-17.067,34.133-34.133,34.133H325.533V276.333H479.133z
		 M479.133,37.4v51.2h-153.6V3.267H445C462.067,3.267,479.133,20.333,479.133,37.4z"/>
	<path style="fill:#FF7474;" d="M171.933,498.2h153.6V276.333h-153.6V498.2z M171.933,88.6h153.6V3.267h-153.6V88.6z"/>
	<path style="fill:#FFD0A1;" d="M171.933,276.333V498.2H52.467c-17.067,0-34.133-17.067-34.133-34.133V276.333H171.933z
		 M171.933,3.267V88.6h-153.6V37.4c0-17.067,17.067-34.133,34.133-34.133H171.933z"/>
	<path style="fill:#AAB1BA;" d="M402.333,395.8c14.507,0,25.6,11.093,25.6,25.6s-11.093,25.6-25.6,25.6
		c-14.507,0-25.6-11.093-25.6-25.6S387.827,395.8,402.333,395.8z M248.733,395.8c14.507,0,25.6,11.093,25.6,25.6
		s-11.093,25.6-25.6,25.6c-14.507,0-25.6-11.093-25.6-25.6S234.227,395.8,248.733,395.8z M95.133,395.8
		c14.507,0,25.6,11.093,25.6,25.6S109.64,447,95.133,447s-25.6-11.093-25.6-25.6S80.627,395.8,95.133,395.8z"/>
	<g>
		<polygon style="fill:#F2EDDA;" points="325.533,276.333 479.133,276.333 479.133,88.6 325.533,88.6 		"/>
		<polygon style="fill:#F2EDDA;" points="171.933,276.333 325.533,276.333 325.533,88.6 171.933,88.6 		"/>
		<polygon style="fill:#F2EDDA;" points="18.333,276.333 171.933,276.333 171.933,88.6 18.333,88.6 		"/>
	</g>
</g>
<path style="fill:#51565F;" d="M448,503.467H328.533c-2.56,0-4.267-1.707-4.267-4.267V4.267c0-2.56,1.707-4.267,4.267-4.267H448
	c19.627,0,38.4,18.773,38.4,38.4v426.667C486.4,484.693,467.627,503.467,448,503.467z M332.8,494.933H448
	c14.507,0,29.867-15.36,29.867-29.867V38.4c0-14.507-15.36-29.867-29.867-29.867H332.8v76.8H448c2.56,0,4.267,1.707,4.267,4.267
	c0,2.56-1.707,4.267-4.267,4.267H332.8v179.2H448c2.56,0,4.267,1.707,4.267,4.267S450.56,281.6,448,281.6H332.8V494.933z
	 M294.4,503.467H174.933c-2.56,0-4.267-1.707-4.267-4.267V4.267c0-2.56,1.707-4.267,4.267-4.267H294.4
	c2.56,0,4.267,1.707,4.267,4.267s-1.707,4.267-4.267,4.267H179.2v76.8h115.2c2.56,0,4.267,1.707,4.267,4.267
	c0,2.56-1.707,4.267-4.267,4.267H179.2v179.2h115.2c2.56,0,4.267,1.707,4.267,4.267s-1.707,4.267-4.267,4.267H179.2v213.333h115.2
	c2.56,0,4.267,1.707,4.267,4.267C298.667,501.76,296.96,503.467,294.4,503.467z M140.8,503.467H55.467
	c-19.627,0-38.4-18.773-38.4-38.4V38.4c0-19.627,18.773-38.4,38.4-38.4H140.8c2.56,0,4.267,1.707,4.267,4.267
	s-1.707,4.267-4.267,4.267H55.467C40.96,8.533,25.6,23.893,25.6,38.4v46.933h115.2c2.56,0,4.267,1.707,4.267,4.267
	c0,2.56-1.707,4.267-4.267,4.267H25.6v179.2h115.2c2.56,0,4.267,1.707,4.267,4.267s-1.707,4.267-4.267,4.267H25.6v183.467
	c0,14.507,15.36,29.867,29.867,29.867H140.8c2.56,0,4.267,1.707,4.267,4.267C145.067,501.76,143.36,503.467,140.8,503.467z
	 M405.333,452.267c-16.213,0-29.867-13.653-29.867-29.867s13.653-29.867,29.867-29.867c16.213,0,29.867,13.653,29.867,29.867
	S421.547,452.267,405.333,452.267z M405.333,401.067c-11.947,0-21.333,9.387-21.333,21.333s9.387,21.333,21.333,21.333
	c11.947,0,21.333-9.387,21.333-21.333S417.28,401.067,405.333,401.067z M251.733,452.267c-16.213,0-29.867-13.653-29.867-29.867
	s13.653-29.867,29.867-29.867S281.6,406.187,281.6,422.4S267.947,452.267,251.733,452.267z M251.733,401.067
	c-11.947,0-21.333,9.387-21.333,21.333s9.387,21.333,21.333,21.333c11.947,0,21.333-9.387,21.333-21.333
	S263.68,401.067,251.733,401.067z M98.133,452.267c-16.213,0-29.867-13.653-29.867-29.867s13.653-29.867,29.867-29.867
	S128,406.187,128,422.4S114.347,452.267,98.133,452.267z M98.133,401.067c-11.947,0-21.333,9.387-21.333,21.333
	s9.387,21.333,21.333,21.333s21.333-9.387,21.333-21.333S110.08,401.067,98.133,401.067z M430.933,213.333h-51.2
	c-2.56,0-4.267-1.707-4.267-4.267c0-2.56,1.707-4.267,4.267-4.267h51.2c2.56,0,4.267,1.707,4.267,4.267
	C435.2,211.627,433.493,213.333,430.933,213.333z M277.333,213.333h-51.2c-2.56,0-4.267-1.707-4.267-4.267
	c0-2.56,1.707-4.267,4.267-4.267h51.2c2.56,0,4.267,1.707,4.267,4.267C281.6,211.627,279.893,213.333,277.333,213.333z
	 M123.733,213.333h-51.2c-2.56,0-4.267-1.707-4.267-4.267c0-2.56,1.707-4.267,4.267-4.267h51.2c2.56,0,4.267,1.707,4.267,4.267
	C128,211.627,126.293,213.333,123.733,213.333z M430.933,162.133h-51.2c-2.56,0-4.267-1.707-4.267-4.267
	c0-2.56,1.707-4.267,4.267-4.267h51.2c2.56,0,4.267,1.707,4.267,4.267C435.2,160.427,433.493,162.133,430.933,162.133z
	 M277.333,162.133h-51.2c-2.56,0-4.267-1.707-4.267-4.267c0-2.56,1.707-4.267,4.267-4.267h51.2c2.56,0,4.267,1.707,4.267,4.267
	C281.6,160.427,279.893,162.133,277.333,162.133z M123.733,162.133h-51.2c-2.56,0-4.267-1.707-4.267-4.267
	c0-2.56,1.707-4.267,4.267-4.267h51.2c2.56,0,4.267,1.707,4.267,4.267C128,160.427,126.293,162.133,123.733,162.133z"/>
<g>
</g>
<g>
</g>
<g>
</g>
<g>
</g>
<g>
</g>
<g>
</g>
<g>
</g>
<g>
</g>
<g>
</g>
<g>
</g>
<g>
</g>
<g>
</g>
<g>
</g>
<g>
</g>
<g>
</g>
</svg>
