<?xml version="1.0" encoding="iso-8859-1"?>
<!-- Generator: Adobe Illustrator 19.0.0, SVG Export Plug-In . SVG Version: 6.00 Build 0)  -->
<svg version="1.1" id="Layer_1" xmlns="http://www.w3.org/2000/svg" xmlns:xlink="http://www.w3.org/1999/xlink" x="0px" y="0px"
	 viewBox="0 0 512.001 512.001" style="enable-background:new 0 0 512.001 512.001;" xml:space="preserve">
<g>
	<g>
		<path d="M77.99,181.175c-16.491,0-29.908,13.416-29.908,29.908c0,16.491,13.416,29.908,29.908,29.908
			c16.491,0,29.908-13.416,29.908-29.908C107.897,194.592,94.481,181.175,77.99,181.175z M77.99,224.629
			c-7.47,0-13.546-6.077-13.546-13.546c0-7.47,6.077-13.546,13.546-13.546s13.546,6.077,13.546,13.546
			C91.536,218.552,85.459,224.629,77.99,224.629z"/>
	</g>
</g>
<g>
	<g>
		<path d="M157.852,185.993c-13.835,0-25.091,11.256-25.091,25.09c0,13.834,11.256,25.09,25.091,25.09
			c13.835,0,25.09-11.256,25.09-25.09C182.942,197.248,171.687,185.993,157.852,185.993z M157.852,219.811
			c-4.814,0-8.729-3.916-8.729-8.728c0-4.814,3.916-8.728,8.729-8.728c4.813,0,8.728,3.916,8.728,8.728
			C166.58,215.895,162.664,219.811,157.852,219.811z"/>
	</g>
</g>
<g>
	<g>
		<path d="M430.266,185.993c-13.835,0-25.09,11.256-25.09,25.09c0,13.834,11.255,25.09,25.09,25.09s25.09-11.256,25.09-25.09
			C455.356,197.248,444.101,185.993,430.266,185.993z M430.266,219.811c-4.812,0-8.728-3.916-8.728-8.728
			c0-4.814,3.916-8.728,8.728-8.728c4.813,0,8.728,3.916,8.728,8.728C438.994,215.895,435.078,219.811,430.266,219.811z"/>
	</g>
</g>
<g>
	<g>
		<path d="M225.427,185.993c-13.835,0-25.091,11.255-25.091,25.09c0,13.834,11.256,25.09,25.091,25.09s25.09-11.256,25.09-25.09
			C250.517,197.248,239.262,185.993,225.427,185.993z M225.427,219.811c-4.814,0-8.729-3.916-8.729-8.728
			c0-4.814,3.916-8.728,8.729-8.728c4.812,0,8.728,3.915,8.728,8.728C234.155,215.895,230.239,219.811,225.427,219.811z"/>
	</g>
</g>
<g>
	<g>
		<path d="M448.107,147.188H141.764c-4.519,0-8.181,3.663-8.181,8.181s3.662,8.181,8.181,8.181h306.343
			c26.209,0,47.532,21.323,47.532,47.533c0,26.209-21.323,47.532-47.532,47.532H397.66c-4.519,0-8.181,3.663-8.181,8.181
			s3.662,8.181,8.181,8.181h50.448c35.232,0,63.894-28.663,63.894-63.895C512.001,175.851,483.339,147.188,448.107,147.188z"/>
	</g>
</g>
<g>
	<g>
		<path d="M364.936,258.617h-84.108h-49.654H63.895c-26.21-0.002-47.533-21.326-47.533-47.534c0-26.209,21.323-47.532,47.533-47.532
			h45.147c4.519,0,8.181-3.663,8.181-8.181s-3.662-8.181-8.181-8.181H63.895C28.663,147.188,0,175.851,0,211.083
			c0,35.232,28.663,63.894,63.895,63.894h159.098v30.142c-16.567,2.512-32.106,8.708-45.632,18.284
			c-14.935,10.575-22.508,21.754-22.508,33.229c0,4.518,3.662,8.181,8.181,8.181h185.935c4.519,0,8.181-3.663,8.181-8.181
			c0-10.578-6.452-20.926-19.177-30.757c-3.574-2.762-8.712-2.104-11.475,1.473c-2.763,3.576-2.104,8.713,1.473,11.476
			c4.302,3.324,7.563,6.563,9.72,9.629H174.333c2.619-3.725,6.84-7.7,12.482-11.695c13.108-9.28,28.496-14.796,44.907-16.187
			c0.047-0.003,0.094,0,0.142-0.004c2.8-0.237,5.539-0.358,8.14-0.358h31.993c2.6,0,5.339,0.12,8.14,0.358
			c0.011,0.001,0.022,0,0.033,0.001c6.858,0.582,13.596,1.888,20.117,3.927c4.311,1.348,8.901-1.056,10.249-5.368
			c1.348-4.313-1.055-8.901-5.368-10.249c-5.281-1.65-10.681-2.896-16.16-3.736v-30.163h75.927c4.519,0,8.181-3.663,8.181-8.181
			S369.455,258.617,364.936,258.617z M272.647,303.848c-0.217-0.001-0.433-0.002-0.65-0.002h-31.993c-0.216,0-0.432,0-0.65,0.002
			v-28.871h0.001h33.292V303.848z"/>
	</g>
</g>
<g>
</g>
<g>
</g>
<g>
</g>
<g>
</g>
<g>
</g>
<g>
</g>
<g>
</g>
<g>
</g>
<g>
</g>
<g>
</g>
<g>
</g>
<g>
</g>
<g>
</g>
<g>
</g>
<g>
</g>
</svg>
