<?xml version="1.0" encoding="iso-8859-1"?>
<!-- Generator: Adobe Illustrator 19.0.0, SVG Export Plug-In . SVG Version: 6.00 Build 0)  -->
<svg version="1.1" id="Layer_1" xmlns="http://www.w3.org/2000/svg" xmlns:xlink="http://www.w3.org/1999/xlink" x="0px" y="0px"
	 viewBox="0 0 512 512" style="enable-background:new 0 0 512 512;" xml:space="preserve">
<polygon style="fill:#FF754F;" points="399.473,247.56 256,247.56 222.242,393.846 365.714,512 399.473,512 "/>
<g>
	<polygon style="fill:#FF9269;" points="233.495,360.088 256,512 365.714,512 365.714,360.088 	"/>
	<polygon style="fill:#FF9269;" points="256,247.56 112.527,247.56 112.527,360.088 184.264,393.846 256,360.088 	"/>
</g>
<rect x="112.527" y="360.088" style="fill:#FFB082;" width="143.473" height="151.912"/>
<polygon style="fill:#FFCD9C;" points="210.989,326.33 67.516,326.33 112.527,247.56 256,247.56 "/>
<polygon style="fill:#FFB082;" points="301.011,326.33 444.484,326.33 399.473,247.56 256,247.56 "/>
<rect x="308.607" y="22.505" style="fill:#2F5E88;" width="56.264" height="157.538"/>
<rect x="145.442" y="22.505" style="fill:#367596;" width="185.67" height="157.538"/>
<polygon style="fill:#88ACB5;" points="342.365,157.538 319.859,180.044 342.365,202.549 376.123,202.549 376.123,157.538 "/>
<rect x="134.189" y="157.538" style="fill:#A7CBCF;" width="208.176" height="45.011"/>
<polygon style="fill:#88ACB5;" points="342.365,0 319.859,22.505 342.365,45.011 376.123,45.011 376.123,0 "/>
<rect x="134.189" style="fill:#A7CBCF;" width="208.176" height="45.011"/>
<polygon style="fill:#88ACB5;" points="342.365,78.769 319.859,101.275 342.365,123.78 376.123,123.78 376.123,78.769 "/>
<rect x="134.189" y="78.769" style="fill:#A7CBCF;" width="208.176" height="45.011"/>
<g>
</g>
<g>
</g>
<g>
</g>
<g>
</g>
<g>
</g>
<g>
</g>
<g>
</g>
<g>
</g>
<g>
</g>
<g>
</g>
<g>
</g>
<g>
</g>
<g>
</g>
<g>
</g>
<g>
</g>
</svg>
