<?xml version="1.0" encoding="UTF-8"?>
<svg width="38px" height="38px" viewBox="0 -10 38 38" version="1.1" xmlns="http://www.w3.org/2000/svg" xmlns:xlink="http://www.w3.org/1999/xlink">
    <!-- Uploaded to SVGRepo https://www.svgrepo.com -->
    <title>activity</title>
    <desc>Created with Sketch.</desc>
    <defs></defs>
    <g id="Vivid.JS" stroke="none" stroke-width="1" fill="none" fill-rule="evenodd">
        <g id="Vivid-Icons" transform="translate(-822.000000, -262.000000)">
            <g id="Icons" transform="translate(37.000000, 169.000000)">
                <g id="activity" transform="translate(780.000000, 78.000000)">
                    <g transform="translate(5.000000, 15.000000)" id="Shape">
                        <path d="M15,18 C14.2440021,18.0007342 13.5521988,17.5751282 13.212,16.9 L9.612,9.717 L7.565,12.268 C7.18362848,12.741224 6.60776609,13.0153566 6,13.013 L2,13.013 C0.898744209,13.013 0.006,12.1202558 0.006,11.019 C0.006,9.91774421 0.898744209,9.025 2,9.025 L5.039,9.025 L8.439,4.788 C8.86490223,4.25514377 9.53302085,3.97610936 10.211396,4.04777298 C10.8897711,4.1194366 11.4848383,4.53191409 11.79,5.142 L14.49,10.528 L17.078,1.498 C17.3096389,0.689534203 18.0222959,0.112346571 18.8612463,0.0537319 C19.7001968,-0.00488277126 20.4861907,0.467599121 20.828,1.236 L24.301,9.026 L27,9.026 C28.1012558,9.026 28.994,9.91874421 28.994,11.02 C28.994,12.1212558 28.1012558,13.014 27,13.014 L23,13.014 C22.2107248,13.0144089 21.4950242,12.5505941 21.173,11.83 L19.41,7.874 L16.923,16.552 C16.6948293,17.3427745 16.0055212,17.9130312 15.186,17.989 C15.123,18 15.061,18 15,18 Z" fill="#FF6E6E"></path>
                        <path d="M32,17 C28.6862915,17 26,14.3137085 26,11 C26,7.6862915 28.6862915,5 32,5 C35.3137085,5 38,7.6862915 38,11 C38,14.3137085 35.3137085,17 32,17 Z M32,8.283 C30.4984446,8.28741726 29.2845143,9.50776086 29.288009,11.0093187 C29.2915037,12.5108766 30.5111013,13.7255564 32.012661,13.7229842 C33.5142207,13.7204121 34.7296496,12.501561 34.728,11 C34.7241386,9.49674808 33.5032552,8.28078762 32,8.283 Z" fill="#0C0058"></path>
                    </g>
                </g>
            </g>
        </g>
    </g>
</svg>