<?xml version="1.0" encoding="iso-8859-1"?>
<!-- Generator: Adobe Illustrator 19.0.0, SVG Export Plug-In . SVG Version: 6.00 Build 0)  -->
<svg version="1.1" id="Layer_1" xmlns="http://www.w3.org/2000/svg" xmlns:xlink="http://www.w3.org/1999/xlink" x="0px" y="0px"
	 viewBox="0 0 496 496" style="enable-background:new 0 0 496 496;" xml:space="preserve">
<path style="fill:#112827;" d="M464.8,168L464.8,168l-0.8-16c0-19.2-15.2-32-32.8-32H32.8C14.4,120,0,133.6,0,152v192
	c0,19.2,14.4,32,32.8,32h398.4c17.6,0,32.8-13.6,32.8-32v-16h0.8c17.6,0,31.2-12.8,31.2-29.6V197.6C496,180.8,481.6,168,464.8,168z"
	/>
<path style="fill:#363F3E;" d="M431.2,376L172.8,120h-140C14.4,120,0,133.6,0,152v192c0,19.2,14.4,32,32.8,32H431.2L431.2,376z"/>
<path style="fill:#555E5C;" d="M262.4,360H32.8c-9.6,0-16.8-6.4-16.8-16V152c0-6.4,3.2-11.2,8-15.2l-12-10.4C4,132.8,0,141.6,0,152
	v192c0,19.2,14.4,32,32.8,32h246.4L262.4,360z"/>
<path style="fill:#1BCEB8;" d="M274.4,220.8c-1.6-2.4-4-4.8-6.4-4.8h-52l32.8-66.4c1.6-4,0-8-4-9.6s-8.8,0-10.4,4l-60,124
	c-0.8,2.4-0.8,6.4,0.8,8c1.6,1.6,4,4.8,6.4,4.8h52l-32.8,66.4c-1.6,4,0,8,4,9.6c0.8,0.8,2.4,0.8,3.2,0.8c3.2,0,5.6-1.6,7.2-4.8
	l60-124C276,226.4,276,222.4,274.4,220.8z M240.8,264h-47.2l14.4-32h47.2L240.8,264z"/>
<g>
	<path style="fill:#37F7D7;" d="M240,264h-45.6l14.4-32h2.4l-12.8-12.8l-23.2,47.2c-0.8,2.4-0.8,6.4,0.8,8.8c1.6,2.4,4,4.8,6.4,4.8
		h52l-32.8,66.4c-1.6,4,0,8,4,9.6c0.8,0.8,2.4,0.8,3.2,0.8c3.2,0,5.6-1.6,7.2-4.8l36.8-76.8L240,264z"/>
	<circle style="fill:#37F7D7;" cx="61.6" cy="248" r="4.8"/>
	<circle style="fill:#37F7D7;" cx="96" cy="248" r="4.8"/>
	<circle style="fill:#37F7D7;" cx="130.4" cy="248" r="4.8"/>
</g>
<g>
	<circle style="fill:#1BCEB8;" cx="316" cy="248" r="4.8"/>
	<circle style="fill:#1BCEB8;" cx="350.4" cy="248" r="4.8"/>
	<circle style="fill:#1BCEB8;" cx="384.8" cy="248" r="4.8"/>
</g>
<g>
</g>
<g>
</g>
<g>
</g>
<g>
</g>
<g>
</g>
<g>
</g>
<g>
</g>
<g>
</g>
<g>
</g>
<g>
</g>
<g>
</g>
<g>
</g>
<g>
</g>
<g>
</g>
<g>
</g>
</svg>
