<?xml version="1.0" encoding="iso-8859-1"?>
<!-- Generator: Adobe Illustrator 19.0.0, SVG Export Plug-In . SVG Version: 6.00 Build 0)  -->
<svg version="1.1" id="Layer_1" xmlns="http://www.w3.org/2000/svg" xmlns:xlink="http://www.w3.org/1999/xlink" x="0px" y="0px"
	 viewBox="0 0 284.118 284.118" style="enable-background:new 0 0 284.118 284.118;" xml:space="preserve">
<g>
	<g>
		<g>
			<path style="fill:#4EFFBB;" d="M264.298,25.886H45.272c-4.48,0-8.112,3.631-8.112,8.112v173.056c0,4.48,3.631,8.112,8.112,8.112
				h64.221v29.577H83.131c-4.48,0-8.112,3.631-8.112,8.112v23.151c0,4.48,3.631,8.112,8.112,8.112h135.201
				c4.48,0,8.112-3.631,8.112-8.112v-23.151c0-4.48-3.631-8.112-8.112-8.112h-23.659v-29.577h69.629c4.48,0,8.112-3.631,8.112-8.112
				V33.998C272.41,29.518,268.776,25.886,264.298,25.886z"/>
		</g>
		<g id="XMLID_7_">
			<g>
				<rect x="65.81" y="235.046" style="fill:#302C58;" width="118.964" height="6.937"/>
				<rect x="100.288" y="189.255" style="fill:#302C58;" width="52.729" height="29.082"/>
				<path style="fill:#222051;" d="M246.953,8.112v173.031c0,4.502-3.609,8.112-8.112,8.112H169.24v29.568h23.646
					c4.502,0,8.112,3.65,8.112,8.112v23.161c0,4.502-3.609,8.112-8.112,8.112H57.698c-4.502,0-8.112-3.609-8.112-8.112v-23.161
					c0-4.462,3.609-8.112,8.112-8.112h26.363v-29.568H19.815c-4.462,0-8.112-3.609-8.112-8.112V8.112C11.703,3.61,15.353,0,19.815,0
					h219.026C243.343,0,246.953,3.609,246.953,8.112z M230.729,173.031v-20.93H27.927v20.93H230.729z M230.729,135.877V16.224
					H27.927v119.654h202.802V135.877z M184.775,241.983v-6.937H65.81v6.937H184.775z M153.017,218.337v-29.082h-52.729v29.082
					H153.017z"/>
				<rect x="27.927" y="16.224" style="fill:#302C58;" width="202.802" height="119.654"/>
			</g>
		</g>
	</g>
</g>
<g>
</g>
<g>
</g>
<g>
</g>
<g>
</g>
<g>
</g>
<g>
</g>
<g>
</g>
<g>
</g>
<g>
</g>
<g>
</g>
<g>
</g>
<g>
</g>
<g>
</g>
<g>
</g>
<g>
</g>
</svg>
