<?xml version="1.0" encoding="iso-8859-1"?>
<!-- Generator: Adobe Illustrator 19.0.0, SVG Export Plug-In . SVG Version: 6.00 Build 0)  -->
<svg version="1.1" id="Layer_1" xmlns="http://www.w3.org/2000/svg" xmlns:xlink="http://www.w3.org/1999/xlink" x="0px" y="0px"
	 viewBox="0 0 505 505" style="enable-background:new 0 0 505 505;" xml:space="preserve">
<circle style="fill:#FFD05B;" cx="252.5" cy="252.5" r="252.5"/>
<path style="fill:#F9B54C;" d="M51.1,404.7C97.2,465.6,170.3,505,252.5,505c82.3,0,155.3-39.4,201.4-100.3H51.1z"/>
<polygon style="fill:#324A5E;" points="299.4,331.3 205.6,331.3 196.5,391.6 308.5,391.6 "/>
<polygon style="fill:#2B3B4E;" points="303.1,355.8 299.4,331.3 205.6,331.3 201.9,355.8 "/>
<path style="fill:#324A5E;" d="M408.3,340.5H96.7c-1.9,0-3.4-1.5-3.4-3.4V103.4c0-1.9,1.5-3.4,3.4-3.4h311.5c1.9,0,3.4,1.5,3.4,3.4
	v233.7C411.7,339,410.2,340.5,408.3,340.5z"/>
<rect x="112" y="119.8" style="fill:#FFFFFF;" width="280.9" height="201"/>
<polygon style="fill:#ACB3BA;" points="339.3,199.9 339.3,209.3 333.4,201.9 273,250.3 197.3,203.9 155.1,263 111.4,228.4 
	111.4,252.3 151.2,283.9 157,276.5 164.7,282 202.4,229.1 274.4,273.2 342.6,218.7 393.1,218.7 393.1,199.9 "/>
<rect x="129.3" y="134.7" style="fill:#FF7058;" width="27.8" height="27.8"/>
<g>
	<rect x="166.7" y="138.3" style="fill:#E6E9EE;" width="83" height="6.8"/>
	<rect x="166.7" y="152.1" style="fill:#E6E9EE;" width="111.4" height="6.8"/>
	<rect x="258.8" y="138.3" style="fill:#E6E9EE;" width="53.2" height="6.8"/>
</g>
<circle style="fill:#FF7058;" cx="339.3" cy="209.3" r="24.1"/>
<circle style="fill:#FFFFFF;" cx="339.3" cy="209.3" r="9.3"/>
<circle style="fill:#4CDBC4;" cx="273.7" cy="261.8" r="24.1"/>
<circle style="fill:#FFFFFF;" cx="273.7" cy="261.8" r="9.3"/>
<circle style="fill:#FFD05B;" cx="199.9" cy="216.5" r="24.1"/>
<circle style="fill:#FFFFFF;" cx="199.9" cy="216.5" r="9.3"/>
<circle style="fill:#54C0EB;" cx="157" cy="276.5" r="24.1"/>
<circle style="fill:#FFFFFF;" cx="157" cy="276.5" r="9.3"/>
<path style="fill:#2B3B4E;" d="M325.4,405H179.6v-20.1c0-2.7,2.2-4.9,4.9-4.9h136c2.7,0,4.9,2.2,4.9,4.9V405z"/>
<g>
</g>
<g>
</g>
<g>
</g>
<g>
</g>
<g>
</g>
<g>
</g>
<g>
</g>
<g>
</g>
<g>
</g>
<g>
</g>
<g>
</g>
<g>
</g>
<g>
</g>
<g>
</g>
<g>
</g>
</svg>
