<?xml version="1.0" encoding="iso-8859-1"?>
<!-- Generator: Adobe Illustrator 19.0.0, SVG Export Plug-In . SVG Version: 6.00 Build 0)  -->
<svg version="1.1" id="Capa_1" xmlns="http://www.w3.org/2000/svg" xmlns:xlink="http://www.w3.org/1999/xlink" x="0px" y="0px"
	 viewBox="0 0 512 512" style="enable-background:new 0 0 512 512;" xml:space="preserve">
<path style="fill:#9E8CEC;" d="M505.486,132.306L379.697,6.515C375.525,2.344,369.87,0,363.974,0c-5.9,0-11.556,2.344-15.724,6.515
	L243.424,111.34c-4.17,4.17-6.512,9.826-6.512,15.724c0,5.897,2.341,11.551,6.512,15.723l125.792,125.789
	c8.683,8.683,22.764,8.683,31.445,0l104.826-104.825C514.169,155.069,514.169,140.989,505.486,132.306z"/>
<path style="fill:#6A56CF;" d="M505.486,132.306l-62.894-62.895L306.319,205.684l62.895,62.894c8.683,8.683,22.764,8.683,31.445,0
	l104.826-104.825C514.169,155.069,514.169,140.989,505.486,132.306z"/>
<g>
	<path style="fill:#5B699C;" d="M306.318,205.684c-8.684-8.683-8.683-22.761,0-31.447L411.144,69.411
		c8.683-8.684,22.763-8.683,31.447,0c8.684,8.684,8.684,22.764,0,31.447L337.764,205.685
		C329.08,214.368,314.999,214.368,306.318,205.684z"/>
	<path style="fill:#5B699C;" d="M416.383,284.299c8.683-8.683,8.683-22.761,0-31.445L259.149,95.619
		c-8.686-8.684-22.764-8.684-31.448-0.001L39.016,284.302c-52.019,52.02-52.019,136.663,0,188.683
		c52.02,52.02,136.663,52.02,188.685,0L416.383,284.299z"/>
</g>
<path style="fill:#2D4175;" d="M416.383,284.299c8.683-8.683,8.683-22.761,0-31.445l-78.617-78.617L39.016,472.985
	c52.02,52.02,136.663,52.02,188.685,0L416.383,284.299z"/>
<g>
</g>
<g>
</g>
<g>
</g>
<g>
</g>
<g>
</g>
<g>
</g>
<g>
</g>
<g>
</g>
<g>
</g>
<g>
</g>
<g>
</g>
<g>
</g>
<g>
</g>
<g>
</g>
<g>
</g>
</svg>
