<?xml version="1.0" encoding="iso-8859-1"?>
<!-- Generator: Adobe Illustrator 19.0.0, SVG Export Plug-In . SVG Version: 6.00 Build 0)  -->
<svg version="1.1" id="Layer_1" xmlns="http://www.w3.org/2000/svg" xmlns:xlink="http://www.w3.org/1999/xlink" x="0px" y="0px"
	 viewBox="0 0 512 512" style="enable-background:new 0 0 512 512;" xml:space="preserve">
<g transform="translate(0 1)">
	<path style="fill:#FFA800;" d="M422.4,144.067c0-18.773-13.653-34.133-29.867-34.133h-107.52l-37.547-51.2H81.92
		c-11.947,0-22.187,11.947-22.187,25.6v59.733H422.4z"/>
	<path style="fill:#FF8800;" d="M426.667,109.933h-34.133c16.213,0,29.867,15.36,29.867,34.133h38.4
		C460.8,125.293,445.44,109.933,426.667,109.933"/>
	<path style="fill:#FFFFFF;" d="M81.92,58.733H59.733c-14.507,0-25.6,11.947-25.6,25.6v59.733h25.6V84.333
		C59.733,70.68,69.973,58.733,81.92,58.733"/>
	<path style="fill:#FFE100;" d="M34.133,169.667v256c0,14.507,10.24,25.6,23.04,25.6h397.653c12.8,0,23.04-11.093,23.04-25.6v-256
		c0-14.507-10.24-25.6-23.04-25.6H57.173C44.373,144.067,34.133,156.013,34.133,169.667"/>
	<path style="fill:#FFFFFF;" d="M34.133,425.667v-256c0-14.507,10.24-25.6,23.04-25.6h-23.04c-14.507,0-25.6,11.093-25.6,25.6v256
		c0,14.507,11.093,25.6,25.6,25.6h23.04C44.373,451.267,34.133,440.173,34.133,425.667"/>
	<path style="fill:#FFA800;" d="M477.867,144.067h-23.04c12.8,0,23.04,11.093,23.04,25.6v256c0,14.507-10.24,25.6-23.04,25.6h23.04
		c14.507,0,25.6-11.093,25.6-25.6v-256C503.467,156.013,492.373,144.067,477.867,144.067"/>
	<path d="M477.867,459.8H34.133C15.36,459.8,0,444.44,0,425.667v-51.2c0-5.12,3.413-8.533,8.533-8.533s8.533,3.413,8.533,8.533v51.2
		c0,9.387,7.68,17.067,17.067,17.067h443.733c9.387,0,17.067-7.68,17.067-17.067v-256c0-9.387-7.68-17.067-17.067-17.067H34.133
		c-9.387,0-17.067,7.68-17.067,17.067V306.2c0,5.12-3.413,8.533-8.533,8.533S0,311.32,0,306.2V169.667
		c0-18.773,15.36-34.133,34.133-34.133h443.733c18.773,0,34.133,15.36,34.133,34.133v256C512,444.44,496.64,459.8,477.867,459.8z"/>
	<path d="M17.067,340.333c0-5.12-3.413-8.533-8.533-8.533S0,335.213,0,340.333c0,5.12,3.413,8.533,8.533,8.533
		S17.067,345.453,17.067,340.333"/>
	<path style="fill:#63D3FD;" d="M256,383L256,383c-14.507,0-25.6-11.093-25.6-25.6v-25.6h51.2v25.6
		C281.6,371.907,270.507,383,256,383"/>
	<path d="M460.8,152.6H34.133c-5.12,0-8.533-3.413-8.533-8.533V84.333C25.6,65.56,40.96,50.2,59.733,50.2h187.733
		c2.56,0,5.12,0.853,6.827,3.413L294.4,101.4h132.267c23.893,0,42.667,18.773,42.667,42.667
		C469.333,149.187,465.92,152.6,460.8,152.6z M42.667,135.533H450.56c-3.413-10.24-12.8-17.067-23.893-17.067H290.133
		c-2.56,0-5.12-0.853-6.827-3.413L243.2,67.267H59.733c-9.387,0-17.067,7.68-17.067,17.067V135.533z"/>
	<polygon points="256,220.867 273.067,220.867 273.067,203.8 256,203.8 	"/>
	<polygon points="256,289.133 273.067,289.133 273.067,272.067 256,272.067 	"/>
	<polygon points="238.933,306.2 256,306.2 256,289.133 238.933,289.133 	"/>
	<polygon points="238.933,272.067 256,272.067 256,255 238.933,255 	"/>
	<polygon points="256,255 273.067,255 273.067,237.933 256,237.933 	"/>
	<polygon points="238.933,237.933 256,237.933 256,220.867 238.933,220.867 	"/>
	<polygon points="256,186.733 273.067,186.733 273.067,169.667 256,169.667 	"/>
	<polygon points="238.933,203.8 256,203.8 256,186.733 238.933,186.733 	"/>
	<polygon points="238.933,169.667 256,169.667 256,152.6 238.933,152.6 	"/>
	<polygon points="256,323.267 273.067,323.267 273.067,306.2 256,306.2 	"/>
	<path d="M256,391.533c-18.773,0-34.133-15.36-34.133-34.133v-34.133h68.267V357.4C290.133,376.173,274.773,391.533,256,391.533z
		 M238.933,340.333V357.4c0,9.387,7.68,17.067,17.067,17.067c9.387,0,17.067-7.68,17.067-17.067v-17.067H238.933z"/>
	<path d="M162.133,203.8h-102.4c-5.12,0-8.533-3.413-8.533-8.533c0-5.12,3.413-8.533,8.533-8.533h102.4
		c5.12,0,8.533,3.413,8.533,8.533C170.667,200.387,167.253,203.8,162.133,203.8z"/>
	<path d="M162.133,237.933h-102.4c-5.12,0-8.533-3.413-8.533-8.533c0-5.12,3.413-8.533,8.533-8.533h102.4
		c5.12,0,8.533,3.413,8.533,8.533C170.667,234.52,167.253,237.933,162.133,237.933z"/>
</g>
<g>
</g>
<g>
</g>
<g>
</g>
<g>
</g>
<g>
</g>
<g>
</g>
<g>
</g>
<g>
</g>
<g>
</g>
<g>
</g>
<g>
</g>
<g>
</g>
<g>
</g>
<g>
</g>
<g>
</g>
</svg>
