<?xml version="1.0" encoding="iso-8859-1"?>
<!-- Generator: Adobe Illustrator 19.0.0, SVG Export Plug-In . SVG Version: 6.00 Build 0)  -->
<svg version="1.1" id="Layer_1" xmlns="http://www.w3.org/2000/svg" xmlns:xlink="http://www.w3.org/1999/xlink" x="0px" y="0px"
	 viewBox="0 0 384 384" style="enable-background:new 0 0 384 384;" xml:space="preserve">
<path style="fill:#A1E8FD;" d="M4,64c0-11.2,8.8-20,20-20h92l52,32h200c6.8,0,12,5.2,12,12v28H4V64z"/>
<path style="fill:#D3F5FF;" d="M16,100h352c6.8,0,12,5.2,12,12v216c0,6.8-5.2,12-12,12H16c-6.8,0-12-5.2-12-12V112
	C4,105.2,9.2,100,16,100z"/>
<g>
	<path style="fill:#E5F9FF;" d="M76,340l135.6-240h-45.2L30.8,340H76L76,340z"/>
	<path style="fill:#E5F9FF;" d="M227.2,340l135.6-240h-106L121.6,340h125.6H227.2z"/>
	<path style="fill:#E5F9FF;" d="M142,100h9.6L16,340H6.4L142,100z"/>
</g>
<g>
	<path style="fill:#64BCE0;" d="M368,80L368,80H176c-10.8,0-25.2-6-32.8-13.6l-9.2-9.2c-5.2-4.8-15.2-9.2-22-9.2H24
		c-8.8,0-16,7.2-16,16v264c0,4.4,3.6,8,8,8h352c4.4,0,8-3.6,8-8V88C376,83.6,372.4,80,368,80L368,80z M368,72c8.8,0,16,7.2,16,16
		v240c0,8.8-7.2,16-16,16H16c-8.8,0-16-7.2-16-16V64c0-13.2,10.8-24,24-24h88c8.8,0,21.2,5.2,27.2,11.2l9.2,9.2
		c6.4,6.4,18.4,11.2,27.2,11.2H368V72z"/>
	<path style="fill:#64BCE0;" d="M6,112L6,112H4c0-8.8,7.2-16,16-16h344c8.8,0,16,7.2,16,16h-2h-2c0-6.8-5.2-12-12-12H20
		c-6.8,0-12,5.2-12,12H6z"/>
</g>
<path style="fill:#BDD0FB;" d="M150.8,206c2.4,0,5.6,0,6.8,0c6.4-28.4,32-50,62.4-50c31.6,0,58,23.2,63.2,53.6
	c0,1.2,0.8,5.2,0.8,5.6c24.8,0,44.4,20,44.4,44.4C328,284,308,304,283.6,304H104c-17.6,0-32-14.4-32-32c0-16.8,12.8-30.8,29.2-32
	c0.8,0,4,0,6,0C111.6,221.2,128.8,206,150.8,206z"/>
<path style="fill:#A291FF;" d="M142.8,194c2.4,0,5.6,0,6.8,0c6.4-28.4,32-50,62.4-50c31.6,0,58,23.2,63.2,53.6
	c0,1.2,0.8,5.2,0.8,5.6c24.8,0,44.4,20,44.4,44.4C320,272,300,292,275.6,292H96c-17.6,0-32-14.4-32-32c0-16.8,12.8-30.8,29.2-32
	c0.8,0,4,0,6,0C103.6,209.2,120.8,194,142.8,194z"/>
<path style="fill:#8D7CEB;" d="M142.8,198L142.8,198c-19.2,0-35.2,13.2-39.2,31.2c-0.4,2-2,3.2-4,3.2c-0.4,0-1.2,0-2.4,0l0,0
	c-2,0-3.2,0-3.6,0c-14.4,1.2-25.6,13.2-25.6,28c0,15.6,12.4,28,28,28h179.6C298,288,316,270,316,247.6s-18-40.4-40.4-40.4
	c-2.8,0-4.8-2.8-3.6-5.6c-0.4,0.8-0.4,0.8-0.4,1.2c0-0.4,0-0.8-0.4-1.6l0,0c-0.4-1.6-0.4-2.4-0.4-3.2h4l-4,0.8
	c-4.8-29.2-29.6-50.8-59.2-50.8c-28,0-52.4,19.6-58.4,46.8c-0.4,2-2,3.2-4,3.2c-1.6,0-1.6,0-4.4,0C143.6,198,143.6,198,142.8,198
	L142.8,198z M275.6,202.4v0.8l3.6,1.6c0.4-0.4,0.4-0.8,0.4-1.2c22.8,2,40.4,20.8,40.4,44c0,24.4-20,44.4-44.4,44.4H96
	c-17.6,0-32-14.4-32-32c0-16.8,12.8-30.8,29.2-32c0.8,0,4,0,6,0c4.4-19.2,21.6-34.4,43.2-34.4c2.4,0,5.6,0,6.8,0
	c6.4-28.4,32-50,62.4-50c31.6,0,58,23.2,63.2,53.6C274.8,198.8,275.2,201.2,275.6,202.4L275.6,202.4z"/>
<g>
</g>
<g>
</g>
<g>
</g>
<g>
</g>
<g>
</g>
<g>
</g>
<g>
</g>
<g>
</g>
<g>
</g>
<g>
</g>
<g>
</g>
<g>
</g>
<g>
</g>
<g>
</g>
<g>
</g>
</svg>
