<?xml version="1.0" encoding="iso-8859-1"?>
<!-- Generator: Adobe Illustrator 19.0.0, SVG Export Plug-In . SVG Version: 6.00 Build 0)  -->
<svg version="1.1" id="Layer_1" xmlns="http://www.w3.org/2000/svg" xmlns:xlink="http://www.w3.org/1999/xlink" x="0px" y="0px"
	 viewBox="0 0 496 496" style="enable-background:new 0 0 496 496;" xml:space="preserve">
<path style="fill:#C2D600;" d="M496,320.8c0,96.8-78.4,175.2-175.2,175.2H175.2C78.4,496,0,417.6,0,320.8V175.2
	C0,78.4,78.4,0,175.2,0h145.6C417.6,0,496,78.4,496,175.2V320.8z"/>
<path style="fill:#A0D300;" d="M0,175.2C0,78.4,78.4,0,175.2,0h145.6C417.6,0,496,78.4,496,175.2v145.6
	c0,96.8-78.4,175.2-175.2,175.2"/>
<g>
	<path style="fill:#7BD100;" d="M320.8,0C417.6,0,496,78.4,496,175.2v145.6c0,96.8-78.4,175.2-175.2,175.2"/>
	<path style="fill:#7BD100;" d="M220.8,176L220.8,176c-6.4,0-12,5.6-12,12v18.4c0,0,0,0,0-0.8l-40-40c-4.8-4.8-12-4.8-16.8,0
		s-4.8,12,0,16.8l40,40c0,0,0,0,0.8,0h-18.4c-6.4,0-12,5.6-12,12s4.8,12,12,12h46.4c3.2,0,6.4-1.6,8-3.2c2.4-2.4,3.2-4.8,3.2-8
		v-46.4C232.8,181.6,227.2,176,220.8,176z M208,222.4C208.8,222.4,208.8,222.4,208,222.4c0.8-0.8,0.8-0.8,0.8-0.8v0.8H208z"/>
	<path style="fill:#7BD100;" d="M304,300.8C303.2,300.8,303.2,300.8,304,300.8h17.6c6.4,0,12-5.6,12-12s-4.8-12-12-12h-46.4
		c-3.2,0-6.4,1.6-8,3.2c-2.4,2.4-3.2,4.8-3.2,8v46.4c0,6.4,5.6,12,12,12s12-5.6,12-12V316c0,0,0,0,0,0.8l40,40
		c2.4,2.4,5.6,3.2,8,3.2s5.6-0.8,8-3.2c4.8-4.8,4.8-12,0-16.8L304,300.8z M287.2,301.6v-0.8h0.8
		C287.2,300.8,287.2,300.8,287.2,301.6C287.2,300.8,287.2,300.8,287.2,301.6z"/>
	<path style="fill:#7BD100;" d="M220.8,276.8h-46.4c-6.4,0-12,5.6-12,12s5.6,12,12,12h18.4c0,0,0,0-0.8,0l-40,40
		c-4.8,4.8-4.8,12,0,16.8c2.4,2.4,5.6,3.2,8,3.2s5.6-0.8,8-3.2l40-40c0,0,0,0,0-0.8v18.4c0,6.4,4.8,12,12,12c6.4,0,12-5.6,12-12
		v-46.4c0-3.2-1.6-6.4-3.2-8C227.2,278.4,224,276.8,220.8,276.8z M208.8,300.8L208.8,300.8L208.8,300.8L208.8,300.8L208.8,300.8z"/>
	<path style="fill:#7BD100;" d="M275.2,245.6h46.4c6.4,0,12-5.6,12-12s-5.6-12-12-12h-18.4c0,0,0,0,0.8,0l40-40
		c4.8-4.8,4.8-12,0-16.8s-12-4.8-16.8,0l-40,40c0,0,0,0,0,0.8v-18.4c0-6.4-4.8-12-12-12c-6.4,0-12,5.6-12,12v46.4
		c0,3.2,1.6,6.4,3.2,8C268.8,244.8,272,245.6,275.2,245.6z M287.2,222.4L287.2,222.4L287.2,222.4L287.2,222.4
		C287.2,221.6,287.2,222.4,287.2,222.4z"/>
</g>
<g>
	<path style="fill:#FFFFFF;" d="M220.8,162.4L220.8,162.4c-6.4,0-12,5.6-12,12v18.4c0,0,0,0,0-0.8l-40-40c-4.8-4.8-12-4.8-16.8,0
		s-4.8,12,0,16.8l40,40c0,0,0,0,0.8,0h-18.4c-6.4,0-12,5.6-12,12s4.8,12,12,12h46.4c3.2,0,6.4-1.6,8-3.2c2.4-2.4,3.2-4.8,3.2-8
		v-46.4C232.8,168,227.2,162.4,220.8,162.4z M208,208.8C208.8,208.8,208.8,208.8,208,208.8c0.8-0.8,0.8-0.8,0.8-0.8v0.8H208z"/>
	<path style="fill:#FFFFFF;" d="M304,287.2C303.2,287.2,303.2,287.2,304,287.2h17.6c6.4,0,12-5.6,12-12s-4.8-12-12-12h-46.4
		c-3.2,0-6.4,1.6-8,3.2c-2.4,2.4-3.2,4.8-3.2,8v46.4c0,6.4,5.6,12,12,12s12-5.6,12-12v-18.4c0,0,0,0,0,0.8l40,40
		c2.4,2.4,5.6,3.2,8,3.2s5.6-0.8,8-3.2c4.8-4.8,4.8-12,0-16.8L304,287.2z M287.2,288v-0.8h0.8C287.2,287.2,287.2,287.2,287.2,288
		C287.2,287.2,287.2,287.2,287.2,288z"/>
	<path style="fill:#FFFFFF;" d="M220.8,263.2h-46.4c-6.4,0-12,5.6-12,12s5.6,12,12,12h18.4c0,0,0,0-0.8,0l-40,40
		c-4.8,4.8-4.8,12,0,16.8c2.4,2.4,5.6,3.2,8,3.2s5.6-0.8,8-3.2l40-40c0,0,0,0,0-0.8v18.4c0,6.4,4.8,12,12,12c6.4,0,12-5.6,12-12
		v-46.4c0-3.2-1.6-6.4-3.2-8C227.2,264.8,224,263.2,220.8,263.2z M208.8,287.2L208.8,287.2L208.8,287.2L208.8,287.2L208.8,287.2z"/>
	<path style="fill:#FFFFFF;" d="M275.2,232.8h46.4c6.4,0,12-5.6,12-12s-5.6-12-12-12h-18.4c0,0,0,0,0.8,0l40-40
		c4.8-4.8,4.8-12,0-16.8s-12-4.8-16.8,0l-40,40c0,0,0,0,0,0.8v-18.4c0-6.4-4.8-12-12-12c-6.4,0-12,5.6-12,12v46.4
		c0,3.2,1.6,6.4,3.2,8C268.8,231.2,272,232.8,275.2,232.8z M287.2,208.8L287.2,208.8L287.2,208.8L287.2,208.8L287.2,208.8z"/>
</g>
<g>
</g>
<g>
</g>
<g>
</g>
<g>
</g>
<g>
</g>
<g>
</g>
<g>
</g>
<g>
</g>
<g>
</g>
<g>
</g>
<g>
</g>
<g>
</g>
<g>
</g>
<g>
</g>
<g>
</g>
</svg>
