<?xml version="1.0" encoding="iso-8859-1"?>
<!-- Generator: Adobe Illustrator 19.0.0, SVG Export Plug-In . SVG Version: 6.00 Build 0)  -->
<svg version="1.1" id="Layer_1" xmlns="http://www.w3.org/2000/svg" xmlns:xlink="http://www.w3.org/1999/xlink" x="0px" y="0px"
	 viewBox="0 0 508 508" style="enable-background:new 0 0 508 508;" xml:space="preserve">
<circle style="fill:#FFD05B;" cx="254" cy="254" r="254"/>
<path style="fill:#324A5E;" d="M330,338H176c0.4,2.4,0.4,4.8,0.4,6.8s0,4.8-0.4,6.8h154c-0.4-2.4-0.4-4.8-0.4-6.8
	S329.6,340.4,330,338z M222,162.8l-75.6,131.6c4,2.4,8,5.2,11.2,8.4l76-132.8C229.6,168,225.6,165.6,222,162.8z M291.2,162.8
	c-3.6,2.8-7.6,5.2-12,6.8l73.6,128.8c3.6-2.8,7.6-5.2,12-6.8L291.2,162.8z"/>
<circle style="fill:#FFFFFF;" cx="256.4" cy="116.4" r="58"/>
<circle style="fill:#FF7058;" cx="256.4" cy="116.4" r="30.8"/>
<circle style="fill:#FFFFFF;" cx="387.6" cy="345.2" r="58"/>
<circle style="fill:#84DBFF;" cx="387.6" cy="345.2" r="30.8"/>
<circle style="fill:#FFFFFF;" cx="118.4" cy="345.2" r="58"/>
<circle style="fill:#ACB3BA;" cx="118.4" cy="345.2" r="30.8"/>
<g>
</g>
<g>
</g>
<g>
</g>
<g>
</g>
<g>
</g>
<g>
</g>
<g>
</g>
<g>
</g>
<g>
</g>
<g>
</g>
<g>
</g>
<g>
</g>
<g>
</g>
<g>
</g>
<g>
</g>
</svg>
