<?xml version="1.0" encoding="iso-8859-1"?>
<!-- Generator: Adobe Illustrator 19.0.0, SVG Export Plug-In . SVG Version: 6.00 Build 0)  -->
<svg version="1.1" id="Layer_1" xmlns="http://www.w3.org/2000/svg" xmlns:xlink="http://www.w3.org/1999/xlink" x="0px" y="0px"
	 viewBox="0 0 489.7 489.7" style="enable-background:new 0 0 489.7 489.7;" xml:space="preserve">
<g>
	<g>
		<path id="XMLID_1284_" style="fill:#3C92CA;" d="M17.1,357.45h107.7c4.4,0,8.1,3.6,8.1,8.1v65.8c0,4.4-3.6,8.1-8.1,8.1H17.1
			c-4.4,0-8.1-3.6-8.1-8.1v-65.8C9,361.05,12.7,357.45,17.1,357.45z"/>
		<path id="XMLID_1282_" style="fill:#3C92CA;" d="M365,357.45h107.7c4.4,0,8.1,3.6,8.1,8.1v65.8c0,4.4-3.6,8.1-8.1,8.1H365
			c-4.4,0-8.1-3.6-8.1-8.1v-65.8C357,361.05,360.6,357.45,365,357.45z"/>
		<path d="M116.6,448.45c14,0,25.3-11.4,25.3-25.3v-49.4c0-14-11.4-25.3-25.3-25.3H80v-67.8h155.8v67.8h-36.6
			c-14,0-25.3,11.4-25.3,25.3v49.4c0,14,11.4,25.3,25.3,25.3h91.3c14,0,25.3-11.4,25.3-25.3v-49.4c0-14-11.4-25.3-25.3-25.3h-36.6
			v-67.8h155.8v67.8h-36.6c-14,0-25.3,11.4-25.3,25.3v49.4c0,14,11.4,25.3,25.3,25.3h91.3c14,0,25.3-11.4,25.3-25.3v-49.4
			c0-14-11.4-25.3-25.3-25.3h-36.5v-76.8c0-5-4.1-9.1-9.1-9.1H254v-47.3h74c18.3,0,33.2-14.9,33.2-33.2V74.45
			c0-18.3-14.9-33.2-33.2-33.2H161.8c-18.3,0-33.2,14.9-33.2,33.2v107.5c0,18.3,14.9,33.2,33.2,33.2h74v47.3H70.9
			c-5,0-9.1,4.1-9.1,9.1v76.8H25.3c-14,0-25.3,11.4-25.3,25.3v49.4c0,14,11.4,25.3,25.3,25.3h91.3
			C116.6,448.35,116.6,448.45,116.6,448.45z M297.7,373.75v49.4c0,4-3.2,7.2-7.2,7.2h-91.3c-4,0-7.2-3.2-7.2-7.2v-49.4
			c0-4,3.2-7.2,7.2-7.2h91.3C294.5,366.45,297.7,369.75,297.7,373.75z M471.7,373.75v49.4c0,4-3.2,7.2-7.2,7.2h-91.3
			c-4,0-7.2-3.2-7.2-7.2v-49.4c0-4,3.2-7.2,7.2-7.2h91.3C468.5,366.45,471.7,369.75,471.7,373.75z M146.7,181.95V74.45
			c0-8.3,6.8-15.1,15.1-15.1H328c8.3,0,15.1,6.8,15.1,15.1v107.5c0,8.3-6.8,15.1-15.1,15.1H161.8
			C153.5,197.05,146.7,190.25,146.7,181.95z M18.1,423.15v-49.4c0-4,3.2-7.2,7.2-7.2h91.3c4,0,7.2,3.2,7.2,7.2v49.4
			c0,4-3.2,7.2-7.2,7.2H25.3C21.3,430.35,18.1,427.15,18.1,423.15z"/>
	</g>
</g>
<g>
</g>
<g>
</g>
<g>
</g>
<g>
</g>
<g>
</g>
<g>
</g>
<g>
</g>
<g>
</g>
<g>
</g>
<g>
</g>
<g>
</g>
<g>
</g>
<g>
</g>
<g>
</g>
<g>
</g>
</svg>
