<?xml version="1.0" encoding="iso-8859-1"?>
<!-- Generator: Adobe Illustrator 19.0.0, SVG Export Plug-In . SVG Version: 6.00 Build 0)  -->
<svg version="1.1" id="Layer_1" xmlns="http://www.w3.org/2000/svg" xmlns:xlink="http://www.w3.org/1999/xlink" x="0px" y="0px"
	 viewBox="0 0 512 512" style="enable-background:new 0 0 512 512;" xml:space="preserve">
<path style="fill:#B3D8F4;" d="M505.184,472.272L346.499,313.588c25.92-32.979,41.398-74.536,41.398-119.639
	C387.896,87.004,300.892,0,193.947,0C140.495,0,92.024,21.737,56.907,56.835C21.768,91.957,0,140.457,0,193.947
	c0,106.944,87.004,193.947,193.947,193.947c45.103,0,86.658-15.476,119.639-41.396l158.684,158.684
	c4.546,4.546,10.501,6.817,16.457,6.817s11.913-2.271,16.455-6.817c0.012-0.012,0.022-0.026,0.034-0.039
	C514.272,496.053,514.261,481.347,505.184,472.272z"/>
<path style="fill:#8CB7E8;" d="M193.947,256.012c-34.223,0-62.065-27.842-62.065-62.064c0-12.853-10.42-23.273-23.273-23.273
	s-23.273,10.42-23.273,23.273c0,59.888,48.722,108.609,108.611,108.609c12.853,0,23.273-10.42,23.273-23.273
	S206.8,256.012,193.947,256.012z"/>
<path style="fill:#FFFFFF;" d="M193.947,46.545c-81.278,0-147.402,66.124-147.402,147.402s66.124,147.402,147.402,147.402
	c81.279,0,147.403-66.124,147.403-147.402C341.351,112.669,275.227,46.545,193.947,46.545z M193.947,302.558
	c-59.888,0-108.611-48.722-108.611-108.609c0-12.853,10.42-23.273,23.273-23.273s23.273,10.42,23.273,23.273
	c0,34.222,27.842,62.064,62.065,62.064c12.853,0,23.273,10.42,23.273,23.273S206.8,302.558,193.947,302.558z"/>
<path style="fill:#BDFDFF;" d="M193.947,46.545c-40.62,0-77.455,16.516-104.142,43.186c-26.712,26.694-43.259,63.558-43.259,104.215
	c0,81.278,66.124,147.402,147.402,147.402c40.657,0,77.523-16.547,104.217-43.258c26.671-26.688,43.186-63.524,43.186-104.144
	C341.351,112.669,275.227,46.545,193.947,46.545z"/>
<path style="fill:#57A4FF;" d="M85.337,193.947c0,59.888,48.722,108.609,108.611,108.609c12.853,0,23.273-10.42,23.273-23.273
	s-10.42-23.273-23.273-23.273c-34.223,0-62.065-27.842-62.065-62.064c0-12.853-10.42-23.273-23.273-23.273
	C95.757,170.674,85.337,181.094,85.337,193.947z"/>
<path style="fill:#9BC9FF;" d="M46.546,193.947c0,81.278,66.124,147.402,147.402,147.402c40.657,0,77.523-16.547,104.217-43.258
	L89.805,89.732C63.093,116.426,46.546,153.29,46.546,193.947z M131.882,193.947c0,34.222,27.842,62.064,62.065,62.064
	c12.853,0,23.273,10.42,23.273,23.273s-10.42,23.273-23.273,23.273c-59.888,0-108.611-48.722-108.611-108.609
	c0-12.853,10.42-23.273,23.273-23.273S131.882,181.094,131.882,193.947z"/>
<path style="fill:#8CB7E8;" d="M0,193.947c0,106.944,87.004,193.947,193.947,193.947c45.103,0,86.658-15.476,119.639-41.396
	l158.684,158.684c4.546,4.546,10.501,6.817,16.457,6.817s11.913-2.271,16.455-6.817c0.012-0.012,0.022-0.026,0.034-0.039
	L298.164,298.091c-26.694,26.712-63.559,43.258-104.217,43.258c-81.278,0-147.402-66.124-147.402-147.402
	c0-40.657,16.547-77.521,43.259-104.215L56.907,56.835C21.768,91.957,0,140.457,0,193.947z"/>
<g>
</g>
<g>
</g>
<g>
</g>
<g>
</g>
<g>
</g>
<g>
</g>
<g>
</g>
<g>
</g>
<g>
</g>
<g>
</g>
<g>
</g>
<g>
</g>
<g>
</g>
<g>
</g>
<g>
</g>
</svg>
