<?xml version="1.0" encoding="iso-8859-1"?>
<!-- Generator: Adobe Illustrator 19.0.0, SVG Export Plug-In . SVG Version: 6.00 Build 0)  -->
<svg version="1.1" id="Layer_1" xmlns="http://www.w3.org/2000/svg" xmlns:xlink="http://www.w3.org/1999/xlink" x="0px" y="0px"
	 viewBox="0 0 512 512" style="enable-background:new 0 0 512 512;" xml:space="preserve">
<rect x="222.242" y="227.868" style="fill:#14858A;" width="67.516" height="101.275"/>
<path style="fill:#41BBBE;" d="M512,227.868c0,12.378-10.127,22.505-22.505,22.505H22.505C10.127,250.374,0,240.246,0,227.868
	v-90.022c0-12.378,10.127-22.505,22.505-22.505h466.989c12.378,0,22.505,10.127,22.505,22.505V227.868z"/>
<polygon style="fill:#71CCCE;" points="108.263,396.659 403.737,396.659 403.737,362.901 256,340.396 108.263,362.901 "/>
<polygon style="fill:#41BBBE;" points="175.779,306.637 108.263,362.901 403.737,362.901 336.221,306.637 "/>
<g>
	<circle style="fill:#06484A;" cx="205.363" cy="182.857" r="33.758"/>
	<circle style="fill:#06484A;" cx="306.637" cy="182.857" r="33.758"/>
	<circle style="fill:#06484A;" cx="67.516" cy="182.857" r="33.758"/>
</g>
<circle style="fill:#086063;" cx="136.44" cy="182.857" r="8.44"/>
<g>
</g>
<g>
</g>
<g>
</g>
<g>
</g>
<g>
</g>
<g>
</g>
<g>
</g>
<g>
</g>
<g>
</g>
<g>
</g>
<g>
</g>
<g>
</g>
<g>
</g>
<g>
</g>
<g>
</g>
</svg>
