<?xml version="1.0" encoding="iso-8859-1"?>
<!-- Generator: Adobe Illustrator 19.0.0, SVG Export Plug-In . SVG Version: 6.00 Build 0)  -->
<svg version="1.1" id="Layer_1" xmlns="http://www.w3.org/2000/svg" xmlns:xlink="http://www.w3.org/1999/xlink" x="0px" y="0px"
	 viewBox="0 0 297 297" style="enable-background:new 0 0 297 297;" xml:space="preserve">
<g>
	<g>
		<circle style="fill:#82D9C8;" cx="148.5" cy="148.5" r="148.5"/>
	</g>
	<path style="fill:#12967D;" d="M297,148.5c0-10.797-1.163-21.322-3.351-31.464l-32.083-32.083L35.005,211.518l82.159,82.159
		c10.103,2.17,20.584,3.323,31.336,3.323C230.514,297,297,230.514,297,148.5z"/>
	<g>
		<rect x="115.5" y="212.75" style="fill:#252A2D;" width="66" height="20"/>
	</g>
	<g>
		<rect x="148.167" y="212.75" style="fill:#191C1E;" width="33.333" height="20"/>
	</g>
	<g>
		<path style="fill:#32373B;" d="M255.667,214.5H41.333c-4.602,0-8.333-3.731-8.333-8.333V90.834c0-4.602,3.731-8.334,8.333-8.334
			h214.333c4.602,0,8.333,3.731,8.333,8.334v115.333C264,210.769,260.269,214.5,255.667,214.5z"/>
	</g>
	<g>
		<path style="fill:#282D30;" d="M255.667,82.5h-107.5v132h107.5c4.602,0,8.333-3.731,8.333-8.333V90.833
			C264,86.231,260.269,82.5,255.667,82.5z"/>
	</g>
	<g>
		<rect x="49.5" y="99" style="fill:#707B82;" width="198" height="99"/>
	</g>
	<g>
		<path style="fill:#32373B;" d="M90.75,247.5h115.5c4.556,0,8.25-3.694,8.25-8.25l0,0c0-4.556-3.694-8.25-8.25-8.25H90.75
			c-4.556,0-8.25,3.694-8.25,8.25l0,0C82.5,243.806,86.194,247.5,90.75,247.5z"/>
	</g>
	<g>
		<rect x="148.167" y="99" style="fill:#616B70;" width="99.333" height="99"/>
	</g>
	<g>
		<path style="fill:#282D30;" d="M206.25,231h-58.083v16.5h58.083c4.556,0,8.25-3.694,8.25-8.25S210.806,231,206.25,231z"/>
	</g>
</g>
<g>
</g>
<g>
</g>
<g>
</g>
<g>
</g>
<g>
</g>
<g>
</g>
<g>
</g>
<g>
</g>
<g>
</g>
<g>
</g>
<g>
</g>
<g>
</g>
<g>
</g>
<g>
</g>
<g>
</g>
</svg>
